0
SECTION
2
HEADER
9
$INSUNITS
70
4
9
$ACADVER
1
AC1014
9
$HANDSEED
5
FFFF
0
ENDSEC
0
SECTION
2
TABLES
0
TABLE
2
VPORT
5
8
100
AcDbSymbolTable
0
ENDTAB
0
TABLE
2
LTYPE
5
5
100
AcDbSymbolTable
0
LTYPE
5
14
100
AcDbSymbolTableRecord
100
AcDbLinetypeTableRecord
2
BYBLOCK
70
0
0
LTYPE
5
15
100
AcDbSymbolTableRecord
100
AcDbLinetypeTableRecord
2
BYLAYER
70
0
0
LTYPE
5
16
100
AcDbSymbolTableRecord
100
AcDbLinetypeTableRecord
2
DASHED
70
0
3
Dashed __ __ __ __ __ __ __ __ __ __ __ __ __ _
72
65
73
2
40
0.75
49
0.5
74
0
49
-0.25
74
0
0
ENDTAB
0
TABLE
2
LAYER
5
2
100
AcDbSymbolTable
70
2
0
LAYER
5
50
100
AcDbSymbolTableRecord
100
AcDbLayerTableRecord
2
0
70
0
62
7
6
CONTINUOUS
0
ENDTAB
0
TABLE
2
STYLE
5
3
100
AcDbSymbolTable
70
1
0
STYLE
5
11
100
AcDbSymbolTableRecord
100
AcDbTextStyleTableRecord
2
STANDARD
70
0
0
ENDTAB
0
TABLE
2
VIEW
5
6
100
AcDbSymbolTable
70
0
0
ENDTAB
0
TABLE
2
UCS
5
7
100
AcDbSymbolTable
70
0
0
ENDTAB
0
TABLE
2
APPID
5
9
100
AcDbSymbolTable
70
2
0
APPID
5
12
100
AcDbSymbolTableRecord
100
AcDbRegAppTableRecord
2
ACAD
70
0
0
ENDTAB
0
TABLE
2
DIMSTYLE
5
A
100
AcDbSymbolTable
70
1
0
ENDTAB
0
TABLE
2
BLOCK_RECORD
5
1
100
AcDbSymbolTable
70
1
0
BLOCK_RECORD
5
1F
100
AcDbSymbolTableRecord
100
AcDbBlockTableRecord
2
*MODEL_SPACE
0
BLOCK_RECORD
5
1B
100
AcDbSymbolTableRecord
100
AcDbBlockTableRecord
2
*PAPER_SPACE
0
ENDTAB
0
ENDSEC
0
SECTION
2
BLOCKS
0
BLOCK
5
20
100
AcDbEntity
100
AcDbBlockBegin
2
*MODEL_SPACE
0
ENDBLK
5
21
100
AcDbEntity
100
AcDbBlockEnd
0
BLOCK
5
1C
100
AcDbEntity
100
AcDbBlockBegin
2
*PAPER_SPACE
0
ENDBLK
5
1D
100
AcDbEntity
100
AcDbBlockEnd
0
ENDSEC
0
SECTION
2
ENTITIES
0
POINT
5
100
100
AcDbEntity
8
0
100
AcDbPoint
10
0
20
0
30
0
0
POINT
5
101
100
AcDbEntity
8
0
100
AcDbPoint
10
31.174142074676915
20
30.027570416648498
30
0
0
LWPOLYLINE
5
102
100
AcDbEntity
8
0
100
AcDbPolyline
90
4
70
1
43
0.0
10
0
20
0
10
70
20
0
10
70
20
50
10
0
20
50
0
LINE
5
103
100
AcDbEntity
8
0
100
AcDbLine
10
38.934019509195572
20
0
30
0
11
38.934019509195572
21
20
31
0
0
LWPOLYLINE
5
104
100
AcDbEntity
8
0
100
AcDbPolyline
90
5
70
1
43
0.0
10
55.934019509195572
20
29.722393993220955
10
64.703790180672939
20
29.722393993220955
10
55.934019509195572
20
29.722393993220955
10
64.703790180672939
20
39.861196996610474
10
55.934019509195572
20
50
0
LWPOLYLINE
5
105
100
AcDbEntity
8
0
100
AcDbPolyline
90
6
70
1
43
0.0
10
43.318904844934252
20
14.930598498305239
10
38.934019509195572
20
14.930598498305239
10
43.318904844934252
20
20
10
43.318904844934252
20
-0.27760600677904534
10
38.934019509195572
20
4.791795494915716
10
47.703790180672939
20
14.930598498305239
0
LWPOLYLINE
5
106
100
AcDbEntity
8
0
100
AcDbPolyline
90
4
70
1
43
0.0
10
47.703790180672939
20
-0.27760600677904534
10
47.703790180672939
20
20
10
38.934019509195572
20
20
10
38.934019509195572
20
-0.27760600677904534
0
LINE
5
107
100
AcDbEntity
8
0
100
AcDbLine
10
38.934019509195572
20
12.570875005198641
30
0
11
47.703790180672939
21
12.570875005198641
31
0
0
LINE
5
108
100
AcDbEntity
8
0
100
AcDbLine
10
38.934019509195572
20
9.8611969966104773
30
0
11
47.703790180672939
21
20
31
0
0
LINE
5
109
100
AcDbEntity
8
0
100
AcDbLine
10
38.934019509195572
20
7.3981099224543811
30
0
11
47.703790180672939
21
7.3981099224543811
31
0
0
LINE
5
110
100
AcDbEntity
8
0
100
AcDbLine
10
38.934019509195572
20
4.791795494915716
30
0
11
43.318904844934252
21
4.791795494915716
31
0
0
LINE
5
111
100
AcDbEntity
8
0
100
AcDbLine
10
38.934019509195572
20
20
30
0
11
47.703790180672939
21
9.8611969966104773
31
0
0
LINE
5
112
100
AcDbEntity
8
0
100
AcDbLine
10
38.934019509195572
20
9.8611969966104773
30
0
11
47.703790180672939
21
9.8611969966104773
31
0
0
LINE
5
113
100
AcDbEntity
8
0
100
AcDbLine
10
47.703790180672939
20
4.791795494915716
30
0
11
38.934019509195572
21
14.930598498305239
31
0
0
LINE
5
114
100
AcDbEntity
8
0
100
AcDbLine
10
41.186675271035817
20
20
30
0
11
41.186675271035817
21
-0.27760600677904534
31
0
0
LINE
5
115
100
AcDbEntity
8
0
100
AcDbLine
10
43.318904844934252
20
-0.27760600677904534
30
0
11
47.703790180672939
21
4.791795494915716
31
0
0
LINE
5
116
100
AcDbEntity
8
0
100
AcDbLine
10
38.934019509195572
20
17.159618223762099
30
0
11
47.703790180672939
21
17.159618223762099
31
0
0
LINE
5
117
100
AcDbEntity
8
0
100
AcDbLine
10
45.358260015184413
20
20
30
0
11
45.358260015184413
21
-0.27760600677904534
31
0
0
LINE
5
118
100
AcDbEntity
8
0
100
AcDbLine
10
38.934019509195572
20
-0.27760600677904534
30
0
11
47.703790180672939
21
9.8611969966104773
31
0
0
LINE
5
119
100
AcDbEntity
8
0
100
AcDbLine
10
47.703790180672939
20
14.930598498305239
30
0
11
43.318904844934252
21
20
31
0
0
LINE
5
120
100
AcDbEntity
8
0
100
AcDbLine
10
43.318904844934252
20
4.791795494915716
30
0
11
47.703790180672939
21
4.791795494915716
31
0
0
LINE
5
121
100
AcDbEntity
8
0
100
AcDbLine
10
38.934019509195572
20
9.8611969966104773
30
0
11
47.703790180672939
21
-0.27760600677904534
31
0
0
LINE
5
122
100
AcDbEntity
8
0
100
AcDbLine
10
38.934019509195572
20
2.2570947440683353
30
0
11
47.703790180672939
21
2.2570947440683353
31
0
0
LINE
5
123
100
AcDbEntity
8
0
100
AcDbLine
10
60.934019509195572
20
20
30
0
11
70
21
20
31
0
0
LWPOLYLINE
5
124
100
AcDbEntity
8
0
100
AcDbPolyline
90
6
70
1
43
0.0
10
60.318904844934252
20
44.930598498305237
10
55.934019509195572
20
44.930598498305237
10
60.318904844934252
20
50
10
60.318904844934252
20
29.722393993220955
10
55.934019509195572
20
34.791795494915718
10
64.703790180672939
20
44.930598498305237
0
LWPOLYLINE
5
125
100
AcDbEntity
8
0
100
AcDbPolyline
90
3
70
1
43
0.0
10
64.703790180672939
20
29.722393993220955
10
64.703790180672939
20
50
10
55.934019509195572
20
39.861196996610474
0
LINE
5
126
100
AcDbEntity
8
0
100
AcDbLine
10
55.934019509195572
20
42.570875005198644
30
0
11
64.703790180672939
21
42.570875005198644
31
0
0
LINE
5
127
100
AcDbEntity
8
0
100
AcDbLine
10
55.934019509195572
20
37.398109922454381
30
0
11
64.703790180672939
21
37.398109922454381
31
0
0
LINE
5
128
100
AcDbEntity
8
0
100
AcDbLine
10
55.934019509195572
20
34.791795494915718
30
0
11
60.318904844934252
21
34.791795494915718
31
0
0
LINE
5
129
100
AcDbEntity
8
0
100
AcDbLine
10
55.934019509195572
20
39.861196996610474
30
0
11
64.703790180672939
21
39.861196996610474
31
0
0
LINE
5
130
100
AcDbEntity
8
0
100
AcDbLine
10
64.703790180672939
20
34.791795494915718
30
0
11
55.934019509195572
21
44.930598498305237
31
0
0
LINE
5
131
100
AcDbEntity
8
0
100
AcDbLine
10
58.186675271035817
20
50
30
0
11
58.186675271035817
21
29.722393993220955
31
0
0
LINE
5
132
100
AcDbEntity
8
0
100
AcDbLine
10
60.318904844934252
20
29.722393993220955
30
0
11
64.703790180672939
21
34.791795494915718
31
0
0
LINE
5
133
100
AcDbEntity
8
0
100
AcDbLine
10
55.934019509195572
20
47.159618223762095
30
0
11
64.703790180672939
21
47.159618223762095
31
0
0
LINE
5
134
100
AcDbEntity
8
0
100
AcDbLine
10
62.358260015184413
20
50
30
0
11
62.358260015184413
21
29.722393993220955
31
0
0
LINE
5
135
100
AcDbEntity
8
0
100
AcDbLine
10
64.703790180672939
20
44.930598498305237
30
0
11
60.318904844934252
21
50
31
0
0
LINE
5
136
100
AcDbEntity
8
0
100
AcDbLine
10
60.318904844934252
20
34.791795494915718
30
0
11
64.703790180672939
21
34.791795494915718
31
0
0
LINE
5
137
100
AcDbEntity
8
0
100
AcDbLine
10
55.934019509195572
20
32.257094744068333
30
0
11
64.703790180672939
21
32.257094744068333
31
0
0
LWPOLYLINE
5
138
100
AcDbEntity
8
0
100
AcDbPolyline
90
6
70
1
43
0.0
10
60.934019509195572
20
4.791795494915716
10
69.703790180672939
20
14.930598498305239
10
65.318904844934252
20
20
10
60.934019509195572
20
14.930598498305239
10
69.703790180672939
20
4.791795494915716
10
65.318904844934252
20
4.791795494915716
0
LINE
5
139
100
AcDbEntity
8
0
100
AcDbLine
10
69.703790180672939
20
14.930598498305239
30
0
11
65.318904844934252
21
14.930598498305239
31
0
0
LINE
5
140
100
AcDbEntity
8
0
100
AcDbLine
10
60.934019509195572
20
17.159618223762099
30
0
11
69.703790180672939
21
17.159618223762099
31
0
0
LINE
5
141
100
AcDbEntity
8
0
100
AcDbLine
10
60.934019509195572
20
12.570875005198641
30
0
11
69.703790180672939
21
12.570875005198641
31
0
0
LWPOLYLINE
5
142
100
AcDbEntity
8
0
100
AcDbPolyline
90
5
70
1
43
0.0
10
60.934019509195572
20
9.8611969966104773
10
69.703790180672939
20
20
10
60.934019509195572
20
20
10
60.934019509195572
20
-0.27760600677904534
10
69.703790180672939
20
9.8611969966104773
0
LINE
5
143
100
AcDbEntity
8
0
100
AcDbLine
10
60.934019509195572
20
2.2570947440683353
30
0
11
69.703790180672939
21
2.2570947440683353
31
0
0
LINE
5
144
100
AcDbEntity
8
0
100
AcDbLine
10
65.318904844934252
20
-0.27760600677904534
30
0
11
65.318904844934252
21
20
31
0
0
LINE
5
145
100
AcDbEntity
8
0
100
AcDbLine
10
65.318904844934252
20
-0.27760600677904534
30
0
11
69.703790180672939
21
4.791795494915716
31
0
0
LINE
5
146
100
AcDbEntity
8
0
100
AcDbLine
10
60.934019509195572
20
0
30
0
11
60.934019509195572
21
20
31
0
0
LINE
5
147
100
AcDbEntity
8
0
100
AcDbLine
10
67.358260015184413
20
20
30
0
11
67.358260015184413
21
-0.27760600677904534
31
0
0
LINE
5
148
100
AcDbEntity
8
0
100
AcDbLine
10
65.318904844934252
20
14.930598498305239
30
0
11
60.934019509195572
21
14.930598498305239
31
0
0
LINE
5
149
100
AcDbEntity
8
0
100
AcDbLine
10
69.703790180672939
20
-0.27760600677904534
30
0
11
69.703790180672939
21
20
31
0
0
LINE
5
150
100
AcDbEntity
8
0
100
AcDbLine
10
65.318904844934252
20
-0.27760600677904534
30
0
11
60.934019509195572
21
4.791795494915716
31
0
0
LINE
5
151
100
AcDbEntity
8
0
100
AcDbLine
10
60.934019509195572
20
-0.27760600677904534
30
0
11
69.703790180672939
21
-0.27760600677904534
31
0
0
LINE
5
152
100
AcDbEntity
8
0
100
AcDbLine
10
60.934019509195572
20
9.8611969966104773
30
0
11
69.703790180672939
21
-0.27760600677904534
31
0
0
LINE
5
153
100
AcDbEntity
8
0
100
AcDbLine
10
60.934019509195572
20
7.3981099224543811
30
0
11
69.703790180672939
21
7.3981099224543811
31
0
0
LINE
5
154
100
AcDbEntity
8
0
100
AcDbLine
10
63.186675271035817
20
20
30
0
11
63.186675271035817
21
-0.27760600677904534
31
0
0
LINE
5
155
100
AcDbEntity
8
0
100
AcDbLine
10
60.934019509195572
20
20
30
0
11
69.703790180672939
21
9.8611969966104773
31
0
0
LWPOLYLINE
5
156
100
AcDbEntity
8
0
100
AcDbPolyline
90
4
70
1
43
0.0
10
38.203790180672932
20
14.930598498305239
10
33.818904844934252
20
14.930598498305239
10
29.434019509195572
20
14.930598498305239
10
33.818904844934252
20
20
0
LINE
5
157
100
AcDbEntity
8
0
100
AcDbLine
10
29.434019509195572
20
17.159618223762099
30
0
11
38.203790180672932
21
17.159618223762099
31
0
0
LINE
5
158
100
AcDbEntity
8
0
100
AcDbLine
10
29.434019509195572
20
7.3981099224543811
30
0
11
38.203790180672932
21
7.3981099224543811
31
0
0
LWPOLYLINE
5
159
100
AcDbEntity
8
0
100
AcDbPolyline
90
4
70
1
43
0.0
10
33.818904844934252
20
4.791795494915716
10
38.203790180672932
20
4.791795494915716
10
33.818904844934252
20
-0.27760600677904534
10
29.434019509195572
20
4.791795494915716
0
LINE
5
160
100
AcDbEntity
8
0
100
AcDbLine
10
29.434019509195572
20
12.570875005198641
30
0
11
38.203790180672932
21
12.570875005198641
31
0
0
LINE
5
161
100
AcDbEntity
8
0
100
AcDbLine
10
38.203790180672932
20
4.791795494915716
30
0
11
29.434019509195572
21
14.930598498305239
31
0
0
LINE
5
162
100
AcDbEntity
8
0
100
AcDbLine
10
29.434019509195572
20
2.2570947440683353
30
0
11
38.203790180672932
21
2.2570947440683353
31
0
0
LWPOLYLINE
5
163
100
AcDbEntity
8
0
100
AcDbPolyline
90
5
70
1
43
0.0
10
29.434019509195572
20
9.8611969966104773
10
38.203790180672932
20
-0.27760600677904534
10
29.434019509195572
20
-0.27760600677904534
10
29.434019509195572
20
20
10
38.203790180672932
20
20
0
LINE
5
164
100
AcDbEntity
8
0
100
AcDbLine
10
29.434019509195572
20
4.791795494915716
30
0
11
38.203790180672932
21
14.930598498305239
31
0
0
LINE
5
165
100
AcDbEntity
8
0
100
AcDbLine
10
29.434019509195572
20
20
30
0
11
38.203790180672932
21
9.8611969966104773
31
0
0
LINE
5
166
100
AcDbEntity
8
0
100
AcDbLine
10
38.203790180672932
20
-0.27760600677904534
30
0
11
38.203790180672932
21
20
31
0
0
LINE
5
167
100
AcDbEntity
8
0
100
AcDbLine
10
29.434019509195572
20
9.8611969966104773
30
0
11
38.203790180672932
21
9.8611969966104773
31
0
0
LINE
5
168
100
AcDbEntity
8
0
100
AcDbLine
10
29.434019509195572
20
-0.27760600677904534
30
0
11
38.203790180672932
21
9.8611969966104773
31
0
0
LINE
5
169
100
AcDbEntity
8
0
100
AcDbLine
10
35.858260015184413
20
20
30
0
11
35.858260015184413
21
-0.27760600677904534
31
0
0
LINE
5
170
100
AcDbEntity
8
0
100
AcDbLine
10
29.434019509195572
20
0
30
0
11
29.434019509195572
21
20
31
0
0
LINE
5
171
100
AcDbEntity
8
0
100
AcDbLine
10
31.686675271035813
20
20
30
0
11
31.686675271035813
21
-0.27760600677904534
31
0
0
LINE
5
172
100
AcDbEntity
8
0
100
AcDbLine
10
33.818904844934252
20
-0.27760600677904534
30
0
11
33.818904844934252
21
20
31
0
0
LWPOLYLINE
5
173
100
AcDbEntity
8
0
100
AcDbPolyline
90
4
70
1
43
0.0
10
28.703790180672932
20
14.930598498305239
10
24.318904844934252
20
14.930598498305239
10
19.934019509195569
20
14.930598498305239
10
24.318904844934252
20
20
0
LINE
5
174
100
AcDbEntity
8
0
100
AcDbLine
10
19.934019509195569
20
17.159618223762099
30
0
11
28.703790180672932
21
17.159618223762099
31
0
0
LINE
5
175
100
AcDbEntity
8
0
100
AcDbLine
10
19.934019509195569
20
7.3981099224543811
30
0
11
28.703790180672932
21
7.3981099224543811
31
0
0
LWPOLYLINE
5
176
100
AcDbEntity
8
0
100
AcDbPolyline
90
4
70
1
43
0.0
10
24.318904844934252
20
4.791795494915716
10
28.703790180672932
20
4.791795494915716
10
24.318904844934252
20
-0.27760600677904534
10
19.934019509195569
20
4.791795494915716
0
LINE
5
177
100
AcDbEntity
8
0
100
AcDbLine
10
19.934019509195569
20
12.570875005198641
30
0
11
28.703790180672932
21
12.570875005198641
31
0
0
LINE
5
178
100
AcDbEntity
8
0
100
AcDbLine
10
28.703790180672932
20
4.791795494915716
30
0
11
19.934019509195569
21
14.930598498305239
31
0
0
LINE
5
179
100
AcDbEntity
8
0
100
AcDbLine
10
19.934019509195569
20
2.2570947440683353
30
0
11
28.703790180672932
21
2.2570947440683353
31
0
0
LWPOLYLINE
5
180
100
AcDbEntity
8
0
100
AcDbPolyline
90
5
70
1
43
0.0
10
19.934019509195569
20
9.8611969966104773
10
28.703790180672932
20
-0.27760600677904534
10
19.934019509195569
20
-0.27760600677904534
10
19.934019509195569
20
20
10
28.703790180672932
20
20
0
LINE
5
181
100
AcDbEntity
8
0
100
AcDbLine
10
19.934019509195569
20
4.791795494915716
30
0
11
28.703790180672932
21
14.930598498305239
31
0
0
LINE
5
182
100
AcDbEntity
8
0
100
AcDbLine
10
19.934019509195569
20
20
30
0
11
28.703790180672932
21
9.8611969966104773
31
0
0
LINE
5
183
100
AcDbEntity
8
0
100
AcDbLine
10
28.703790180672932
20
-0.27760600677904534
30
0
11
28.703790180672932
21
20
31
0
0
LINE
5
184
100
AcDbEntity
8
0
100
AcDbLine
10
19.934019509195569
20
9.8611969966104773
30
0
11
28.703790180672932
21
9.8611969966104773
31
0
0
LINE
5
185
100
AcDbEntity
8
0
100
AcDbLine
10
19.934019509195569
20
-0.27760600677904534
30
0
11
28.703790180672932
21
9.8611969966104773
31
0
0
LINE
5
186
100
AcDbEntity
8
0
100
AcDbLine
10
26.358260015184413
20
20
30
0
11
26.358260015184413
21
-0.27760600677904534
31
0
0
LINE
5
187
100
AcDbEntity
8
0
100
AcDbLine
10
19.934019509195569
20
0
30
0
11
19.934019509195569
21
20
31
0
0
LINE
5
188
100
AcDbEntity
8
0
100
AcDbLine
10
22.18667527103581
20
20
30
0
11
22.18667527103581
21
-0.27760600677904534
31
0
0
LINE
5
189
100
AcDbEntity
8
0
100
AcDbLine
10
24.318904844934252
20
-0.27760600677904534
30
0
11
24.318904844934252
21
20
31
0
0
LWPOLYLINE
5
190
100
AcDbEntity
8
0
100
AcDbPolyline
90
5
70
1
43
0.0
10
29.674142074676912
20
50.027570416648501
10
38.443912746154275
20
50.027570416648501
10
38.443912746154275
20
29.749964409869452
10
29.674142074676912
20
29.749964409869452
10
38.443912746154275
20
39.888767413258975
0
LINE
5
191
100
AcDbEntity
8
0
100
AcDbLine
10
29.674142074676912
20
39.888767413258975
30
0
11
38.443912746154275
21
50.027570416648501
31
0
0
LWPOLYLINE
5
192
100
AcDbEntity
8
0
100
AcDbPolyline
90
4
70
1
43
0.0
10
29.674142074676912
20
44.958168914953731
10
34.059027410415595
20
50.027570416648501
10
38.443912746154275
20
44.958168914953731
10
34.059027410415595
20
44.958168914953731
0
LWPOLYLINE
5
193
100
AcDbEntity
8
0
100
AcDbPolyline
90
3
70
1
43
0.0
10
20.174142074676912
20
29.749964409869452
10
28.943912746154275
20
39.888767413258975
10
20.174142074676912
20
50.027570416648501
0
LINE
5
194
100
AcDbEntity
8
0
100
AcDbLine
10
20.174142074676912
20
34.819365911564212
30
0
11
24.559027410415592
21
34.819365911564212
31
0
0
LWPOLYLINE
5
195
100
AcDbEntity
8
0
100
AcDbPolyline
90
6
70
1
43
0.0
10
24.559027410415592
20
29.749964409869452
10
28.943912746154275
20
34.819365911564212
10
20.174142074676912
20
44.958168914953731
10
24.559027410415592
20
44.958168914953731
10
28.943912746154275
20
44.958168914953731
10
20.174142074676912
20
34.819365911564212
0
LINE
5
196
100
AcDbEntity
8
0
100
AcDbLine
10
34.059027410415595
20
29.749964409869452
30
0
11
38.443912746154275
21
34.819365911564212
31
0
0
LWPOLYLINE
5
197
100
AcDbEntity
8
0
100
AcDbPolyline
90
3
70
1
43
0.0
10
20.174142074676912
20
39.888767413258975
10
28.943912746154275
20
29.749964409869452
10
28.943912746154275
20
50.027570416648501
0
LINE
5
198
100
AcDbEntity
8
0
100
AcDbLine
10
45.598382580665756
20
50.027570416648501
30
0
11
45.598382580665756
21
29.749964409869452
31
0
0
LINE
5
199
100
AcDbEntity
8
0
100
AcDbLine
10
39.174142074676915
20
30.027570416648498
30
0
11
39.174142074676915
21
50.027570416648501
31
0
0
LINE
5
200
100
AcDbEntity
8
0
100
AcDbLine
10
20.174142074676912
20
44.958168914953731
30
0
11
24.559027410415592
21
50.027570416648501
31
0
0
LINE
5
201
100
AcDbEntity
8
0
100
AcDbLine
10
34.059027410415595
20
34.819365911564212
30
0
11
38.443912746154275
21
34.819365911564212
31
0
0
LINE
5
202
100
AcDbEntity
8
0
100
AcDbLine
10
34.059027410415595
20
29.749964409869452
30
0
11
34.059027410415595
21
50.027570416648501
31
0
0
LINE
5
203
100
AcDbEntity
8
0
100
AcDbLine
10
20.174142074676912
20
29.749964409869452
30
0
11
28.943912746154275
21
29.749964409869452
31
0
0
LINE
5
204
100
AcDbEntity
8
0
100
AcDbLine
10
20.174142074676912
20
39.888767413258975
30
0
11
28.943912746154275
21
39.888767413258975
31
0
0
LINE
5
205
100
AcDbEntity
8
0
100
AcDbLine
10
20.174142074676912
20
47.187188640410596
30
0
11
28.943912746154275
21
47.187188640410596
31
0
0
LINE
5
206
100
AcDbEntity
8
0
100
AcDbLine
10
20.174142074676912
20
32.284665160716827
30
0
11
28.943912746154275
21
32.284665160716827
31
0
0
LINE
5
207
100
AcDbEntity
8
0
100
AcDbLine
10
28.943912746154275
20
44.958168914953731
30
0
11
24.559027410415592
21
50.027570416648501
31
0
0
LWPOLYLINE
5
208
100
AcDbEntity
8
0
100
AcDbPolyline
90
4
70
1
43
0.0
10
39.174142074676915
20
44.958168914953731
10
43.559027410415595
20
50.027570416648501
10
47.943912746154282
20
44.958168914953731
10
43.559027410415595
20
44.958168914953731
0
LINE
5
209
100
AcDbEntity
8
0
100
AcDbLine
10
22.426797836517153
20
50.027570416648501
30
0
11
22.426797836517153
21
29.749964409869452
31
0
0
LINE
5
210
100
AcDbEntity
8
0
100
AcDbLine
10
20.174142074676912
20
37.425680339102875
30
0
11
28.943912746154275
21
37.425680339102875
31
0
0
LINE
5
211
100
AcDbEntity
8
0
100
AcDbLine
10
24.559027410415592
20
29.749964409869452
30
0
11
24.559027410415592
21
50.027570416648501
31
0
0
LINE
5
212
100
AcDbEntity
8
0
100
AcDbLine
10
29.674142074676912
20
47.187188640410596
30
0
11
38.443912746154275
21
47.187188640410596
31
0
0
LINE
5
213
100
AcDbEntity
8
0
100
AcDbLine
10
29.674142074676912
20
32.284665160716827
30
0
11
38.443912746154275
21
32.284665160716827
31
0
0
LINE
5
214
100
AcDbEntity
8
0
100
AcDbLine
10
29.674142074676912
20
39.888767413258975
30
0
11
38.443912746154275
21
29.749964409869452
31
0
0
LINE
5
215
100
AcDbEntity
8
0
100
AcDbLine
10
29.674142074676912
20
37.425680339102875
30
0
11
38.443912746154275
21
37.425680339102875
31
0
0
LINE
5
216
100
AcDbEntity
8
0
100
AcDbLine
10
29.674142074676912
20
34.819365911564212
30
0
11
34.059027410415595
21
34.819365911564212
31
0
0
LINE
5
217
100
AcDbEntity
8
0
100
AcDbLine
10
29.674142074676912
20
34.819365911564212
30
0
11
38.443912746154275
21
44.958168914953731
31
0
0
LINE
5
218
100
AcDbEntity
8
0
100
AcDbLine
10
43.559027410415595
20
29.749964409869452
30
0
11
39.174142074676915
21
34.819365911564212
31
0
0
LWPOLYLINE
5
219
100
AcDbEntity
8
0
100
AcDbPolyline
90
6
70
1
43
0.0
10
39.174142074676915
20
29.749964409869452
10
39.174142074676915
20
50.027570416648501
10
47.943912746154282
20
39.888767413258975
10
39.174142074676915
20
39.888767413258975
10
47.943912746154282
20
50.027570416648501
10
47.943912746154282
20
29.749964409869452
0
LINE
5
220
100
AcDbEntity
8
0
100
AcDbLine
10
20.174142074676912
20
30.027570416648498
30
0
11
20.174142074676912
21
50.027570416648501
31
0
0
LINE
5
221
100
AcDbEntity
8
0
100
AcDbLine
10
20.174142074676912
20
50.027570416648501
30
0
11
28.943912746154275
21
50.027570416648501
31
0
0
LINE
5
222
100
AcDbEntity
8
0
100
AcDbLine
10
39.174142074676915
20
34.819365911564212
30
0
11
43.559027410415595
21
34.819365911564212
31
0
0
LINE
5
223
100
AcDbEntity
8
0
100
AcDbLine
10
41.426797836517153
20
50.027570416648501
30
0
11
41.426797836517153
21
29.749964409869452
31
0
0
LINE
5
224
100
AcDbEntity
8
0
100
AcDbLine
10
26.598382580665753
20
50.027570416648501
30
0
11
26.598382580665753
21
29.749964409869452
31
0
0
LINE
5
225
100
AcDbEntity
8
0
100
AcDbLine
10
36.098382580665756
20
50.027570416648501
30
0
11
36.098382580665756
21
29.749964409869452
31
0
0
LINE
5
226
100
AcDbEntity
8
0
100
AcDbLine
10
39.174142074676915
20
50.027570416648501
30
0
11
47.943912746154282
21
50.027570416648501
31
0
0
LINE
5
227
100
AcDbEntity
8
0
100
AcDbLine
10
24.559027410415592
20
34.819365911564212
30
0
11
28.943912746154275
21
34.819365911564212
31
0
0
LINE
5
228
100
AcDbEntity
8
0
100
AcDbLine
10
43.559027410415595
20
29.749964409869452
30
0
11
43.559027410415595
21
50.027570416648501
31
0
0
LINE
5
229
100
AcDbEntity
8
0
100
AcDbLine
10
39.174142074676915
20
34.819365911564212
30
0
11
47.943912746154282
21
44.958168914953731
31
0
0
LINE
5
230
100
AcDbEntity
8
0
100
AcDbLine
10
39.174142074676915
20
37.425680339102875
30
0
11
47.943912746154282
21
37.425680339102875
31
0
0
LINE
5
231
100
AcDbEntity
8
0
100
AcDbLine
10
47.943912746154282
20
34.819365911564212
30
0
11
39.174142074676915
21
44.958168914953731
31
0
0
LINE
5
232
100
AcDbEntity
8
0
100
AcDbLine
10
31.926797836517157
20
50.027570416648501
30
0
11
31.926797836517157
21
29.749964409869452
31
0
0
LINE
5
233
100
AcDbEntity
8
0
100
AcDbLine
10
39.174142074676915
20
47.187188640410596
30
0
11
47.943912746154282
21
47.187188640410596
31
0
0
LINE
5
234
100
AcDbEntity
8
0
100
AcDbLine
10
43.559027410415595
20
29.749964409869452
30
0
11
47.943912746154282
21
34.819365911564212
31
0
0
LINE
5
235
100
AcDbEntity
8
0
100
AcDbLine
10
43.559027410415595
20
34.819365911564212
30
0
11
47.943912746154282
21
34.819365911564212
31
0
0
LINE
5
236
100
AcDbEntity
8
0
100
AcDbLine
10
39.174142074676915
20
42.598445421847146
30
0
11
47.943912746154282
21
42.598445421847146
31
0
0
LINE
5
237
100
AcDbEntity
8
0
100
AcDbLine
10
39.174142074676915
20
39.888767413258975
30
0
11
47.943912746154282
21
29.749964409869452
31
0
0
LINE
5
238
100
AcDbEntity
8
0
100
AcDbLine
10
39.174142074676915
20
32.284665160716827
30
0
11
47.943912746154282
21
32.284665160716827
31
0
0
LINE
5
239
100
AcDbEntity
8
0
100
AcDbLine
10
29.674142074676912
20
29.749964409869452
30
0
11
29.674142074676912
21
50.027570416648501
31
0
0
LINE
5
240
100
AcDbEntity
8
0
100
AcDbLine
10
29.674142074676912
20
30.027570416648498
30
0
11
29.674142074676912
21
50.027570416648501
31
0
0
LINE
5
241
100
AcDbEntity
8
0
100
AcDbLine
10
20.174142074676912
20
42.598445421847146
30
0
11
28.943912746154275
21
42.598445421847146
31
0
0
LINE
5
242
100
AcDbEntity
8
0
100
AcDbLine
10
39.174142074676915
20
29.749964409869452
30
0
11
47.943912746154282
21
39.888767413258975
31
0
0
LINE
5
243
100
AcDbEntity
8
0
100
AcDbLine
10
34.059027410415595
20
29.749964409869452
30
0
11
29.674142074676912
21
34.819365911564212
31
0
0
LINE
5
244
100
AcDbEntity
8
0
100
AcDbLine
10
29.674142074676912
20
39.888767413258975
30
0
11
38.443912746154275
21
39.888767413258975
31
0
0
LINE
5
245
100
AcDbEntity
8
0
100
AcDbLine
10
38.443912746154275
20
34.819365911564212
30
0
11
29.674142074676912
21
44.958168914953731
31
0
0
LINE
5
246
100
AcDbEntity
8
0
100
AcDbLine
10
29.674142074676912
20
42.598445421847146
30
0
11
38.443912746154275
21
42.598445421847146
31
0
0
LINE
5
247
100
AcDbEntity
8
0
100
AcDbLine
10
34.214294695070919
20
50
30
0
11
34.214294695070919
21
29.749964409869452
31
0
0
LINE
5
248
100
AcDbEntity
8
0
100
AcDbLine
10
34.214294695070919
20
20
30
0
11
34.214294695070926
21
0
31
0
0
ENDSEC
0
SECTION
2
OBJECTS
0
DICTIONARY
5
C
100
AcDbDictionary
3
ACAD_GROUP
350
D
3
ACAD_MLINESTYLE
350
17
0
DICTIONARY
5
D
100
AcDbDictionary
0
DICTIONARY
5
1A
330
C
100
AcDbDictionary
0
DICTIONARY
5
17
100
AcDbDictionary
0
ENDSEC
0
EOF
